<?xml version="1.0" encoding="utf-8"?>
<!-- Generator: Adobe Illustrator 16.0.0, SVG Export Plug-In . SVG Version: 6.00 Build 0)  -->
<!DOCTYPE svg PUBLIC "-//W3C//DTD SVG 1.1//EN" "http://www.w3.org/Graphics/SVG/1.1/DTD/svg11.dtd">
<svg version="1.1" id="Layer_1" xmlns="http://www.w3.org/2000/svg" xmlns:xlink="http://www.w3.org/1999/xlink" x="0px" y="0px"
	 width="273.05px" height="273.05px" viewBox="0 0 273.05 273.05" enable-background="new 0 0 273.05 273.05" xml:space="preserve">
<g>
	<g>
		<path fill="#F4F0EA" d="M136.522,174.658c-41.187,0-74.861-32.102-77.418-72.646H0.001v161.53c0,5.244,4.257,9.506,9.506,9.506
			h254.036c5.25,0,9.506-4.262,9.506-9.506v-161.53H213.94C211.388,142.557,177.714,174.658,136.522,174.658z"/>
		<path fill="#986F2E" d="M263.542,0H9.507C4.258,0,0.001,4.255,0.001,9.507v92.505h59.104c-0.104-1.637-0.17-3.285-0.17-4.945
			c0-42.851,34.738-77.59,77.588-77.59c42.855,0,77.594,34.739,77.594,77.59c0,1.66-0.072,3.309-0.176,4.945h59.107V9.507
			C273.048,4.255,268.792,0,263.542,0z"/>
		<path fill="#F4F0EA" d="M136.522,30.76c-36.615,0-66.303,29.69-66.303,66.307c0,1.665,0.083,3.309,0.202,4.945
			c2.534,34.305,31.148,61.356,66.101,61.356c34.957,0,63.571-27.053,66.104-61.356c0.123-1.637,0.203-3.28,0.203-4.945
			C202.83,60.45,173.147,30.76,136.522,30.76z"/>
	</g>
	<g>
		<g>
			<path fill="#231F20" d="M103.501,226.447h10.846c-0.424-2.916-1.235-5.398-2.433-7.451c-1.198-2.051-2.905-3.824-5.121-5.317
				l1.05-2.468c2.502,1.306,4.541,3.24,6.115,5.806c1.575,2.565,2.637,5.731,3.188,9.496v2.479h-13.645V226.447z"/>
			<path fill="#231F20" d="M121.87,204.246h2.895v22.201h4.293c0.117,0,0.175,0.043,0.175,0.127v2.258
				c0,0.107-0.059,0.16-0.175,0.16h-7.188V204.246z"/>
			<path fill="#231F20" d="M128.74,228.992c-0.105,0-0.159-0.053-0.159-0.16v-2.258c0-0.084,0.053-0.127,0.159-0.127h4.294v-13.248
				h2.895v13.248h4.246c0.105,0,0.16,0.043,0.16,0.127v2.258c0,0.107-0.055,0.16-0.16,0.16H128.74z M134.37,210.098
				c-0.562,0-1.007-0.168-1.336-0.509c-0.329-0.34-0.493-0.821-0.493-1.446s0.161-1.106,0.485-1.447
				c0.323-0.34,0.771-0.51,1.344-0.51c0.583,0,1.034,0.179,1.352,0.532c0.318,0.355,0.478,0.83,0.478,1.425
				c0,0.594-0.159,1.067-0.478,1.424C135.403,209.921,134.953,210.098,134.37,210.098z"/>
			<path fill="#231F20" d="M161.071,228.992c-0.976,0-1.874-0.162-2.694-0.486c-0.821-0.321-1.674-0.918-2.553-1.789
				c-0.479,0.668-1.113,1.216-1.908,1.64c-0.797,0.424-1.744,0.638-2.848,0.638h-11.229c-0.104,0-0.157-0.054-0.157-0.16v-2.258
				c0-0.084,0.053-0.127,0.157-0.127h4.66v-10.72h2.769v10.72h3.515c1.051,0,1.866-0.349,2.448-1.041
				c0.584-0.695,0.875-1.604,0.875-2.729v-6.949h2.769v7.824l-0.031,0.364c0.539,0.935,1.131,1.588,1.771,1.965
				s1.461,0.564,2.457,0.564h1.987v-13.248h2.769v15.793H161.071z"/>
			<path fill="#231F20" d="M171.854,204.246h2.896v24.746h-2.896V204.246z"/>
		</g>
	</g>
	<g>
		<g>
			<polygon fill="#9E830F" points="145.474,99.505 157.843,120.584 91.396,120.584 99.883,104.838 104.978,102.895 99.883,113.799 
				136.019,113.799 			"/>
			<polygon fill="#232222" points="148.389,69.215 146.442,72.848 140.867,63.641 121.95,93.93 130.682,109.924 105.708,109.924 
				138.683,53.705 			"/>
			<polyline fill="#C7A900" points="127.774,92.235 145.716,92.235 164.146,123.254 152.501,123.254 154.687,128.824 
				174.085,128.824 140.38,70.185 128.018,91.508 			"/>
		</g>
	</g>
</g>
</svg>
