<?xml version="1.0" encoding="utf-8"?>
<!-- Generator: Adobe Illustrator 16.0.0, SVG Export Plug-In . SVG Version: 6.00 Build 0)  -->
<!DOCTYPE svg PUBLIC "-//W3C//DTD SVG 1.1//EN" "http://www.w3.org/Graphics/SVG/1.1/DTD/svg11.dtd">
<svg version="1.1" id="Layer_1" xmlns="http://www.w3.org/2000/svg" xmlns:xlink="http://www.w3.org/1999/xlink" x="0px" y="0px"
	 width="273.05px" height="273.05px" viewBox="0 0 273.05 273.05" enable-background="new 0 0 273.05 273.05" xml:space="preserve">
<path fill="#F4F0EA" d="M136.525,174.66c-41.193,0-74.867-32.102-77.418-72.646H0v161.531c0,5.244,4.257,9.504,9.506,9.504h254.039
	c5.252,0,9.509-4.26,9.509-9.504V102.012h-59.107C211.387,142.559,177.712,174.66,136.525,174.66z"/>
<path fill="#986F2E" d="M263.542,0H9.505C4.256,0,0,4.257,0,9.508v92.504h59.108c-0.104-1.636-0.173-3.283-0.173-4.943
	c0-42.853,34.739-77.592,77.591-77.592c42.851,0,77.591,34.739,77.591,77.592c0,1.66-0.068,3.308-0.173,4.943h59.106V9.508
	C273.05,4.257,268.794,0,263.542,0z"/>
<g>
	<g>
		<path fill="#231F20" d="M85.816,230.353c-1.75,0-3.126-0.606-4.129-1.818c-1.003-1.212-1.504-2.857-1.504-4.936
			c0-0.976,0.08-1.854,0.239-2.639c0.159-0.784,0.408-1.586,0.745-2.406h2.324c-0.21,0.52-0.372,1.019-0.485,1.497
			c-0.114,0.479-0.194,0.941-0.239,1.388c-0.046,0.446-0.068,1.112-0.068,1.996c0,1.513,0.314,2.68,0.943,3.5s1.531,1.23,2.707,1.23
			h5.482c1.431,0,2.563-0.26,3.397-0.779s1.251-1.212,1.251-2.078c0-0.347-0.119-0.684-0.355-1.012
			c-0.237-0.328-0.556-0.651-0.957-0.971c-0.401-0.319-1.085-0.771-2.051-1.354c-1.121-0.665-1.905-1.191-2.352-1.579
			c-0.447-0.388-0.786-0.788-1.019-1.203s-0.349-0.868-0.349-1.36c0-1.112,0.412-2.285,1.237-3.521
			c0.825-1.235,1.848-2.254,3.069-3.056c1.221-0.802,2.406-1.203,3.555-1.203c0.446,0,1.073,0.128,1.88,0.383
			s1.388,0.501,1.743,0.738l-1.012,1.873c-0.273-0.137-0.663-0.251-1.169-0.342s-0.955-0.137-1.347-0.137
			c-0.629,0-1.36,0.255-2.194,0.766s-1.541,1.14-2.119,1.887c-0.579,0.747-0.868,1.458-0.868,2.133c0,0.629,0.697,1.367,2.092,2.215
			c1.376,0.839,2.354,1.531,2.933,2.078c0.579,0.547,1.027,1.137,1.347,1.771c0.319,0.634,0.479,1.283,0.479,1.948
			c0,1.559-0.625,2.78-1.873,3.664c-1.249,0.884-3.021,1.326-5.318,1.326H85.816z M86.678,235.945c-0.438,0-0.809-0.132-1.114-0.396
			c-0.306-0.265-0.458-0.692-0.458-1.285s0.152-1.021,0.458-1.285c0.305-0.265,0.677-0.396,1.114-0.396
			c0.474,0,0.852,0.144,1.135,0.431c0.282,0.287,0.424,0.704,0.424,1.251c0,0.538-0.139,0.952-0.417,1.244
			C87.541,235.799,87.161,235.945,86.678,235.945z M91.518,235.945c-0.483,0-0.866-0.146-1.148-0.438
			c-0.283-0.292-0.424-0.706-0.424-1.244s0.139-0.952,0.417-1.244c0.278-0.292,0.663-0.438,1.155-0.438
			c0.501,0,0.889,0.152,1.162,0.458s0.41,0.713,0.41,1.224s-0.137,0.918-0.41,1.224S92.019,235.945,91.518,235.945z"/>
		<path fill="#231F20" d="M104.656,202.353h2.488v19.086h3.691c0.1,0,0.15,0.036,0.15,0.109v1.941c0,0.091-0.05,0.137-0.15,0.137
			h-6.18V202.353z"/>
		<path fill="#231F20" d="M110.563,223.626c-0.091,0-0.137-0.046-0.137-0.137v-1.941c0-0.073,0.046-0.109,0.137-0.109h3.473
			c-0.693-1.805-1.039-3.399-1.039-4.785c0-1.668,0.337-3.153,1.012-4.457c0.684-0.574,1.467-1.03,2.352-1.367
			c0.884-0.337,1.805-0.506,2.762-0.506c1.167,0,2.192,0.258,3.076,0.772c0.884,0.515,1.563,1.246,2.037,2.194
			c0.474,0.948,0.711,2.023,0.711,3.227c0,1.468-0.267,2.734-0.8,3.801s-1.285,1.885-2.256,2.454s-2.081,0.854-3.329,0.854H110.563z
			 M115.512,216.175c0,0.866,0.077,1.716,0.232,2.55c0.155,0.834,0.433,1.738,0.834,2.714h1.982c1.249,0,2.206-0.424,2.871-1.271
			c0.665-0.848,0.998-2.073,0.998-3.678c0-1.176-0.321-2.138-0.964-2.885s-1.424-1.121-2.345-1.121
			c-0.593,0-1.174,0.104-1.743,0.314c-0.57,0.21-1.078,0.487-1.524,0.834c-0.155,0.392-0.251,0.791-0.287,1.196
			C115.53,215.234,115.512,215.683,115.512,216.175z"/>
		<path fill="#231F20" d="M143.744,230.353c-1.731,0-3.104-0.638-4.115-1.914s-1.518-3.03-1.518-5.264
			c0-1.148,0.101-2.313,0.301-3.493c0.201-1.181,0.483-2.217,0.848-3.11h2.324c-0.638,1.613-0.957,3.814-0.957,6.604
			c0,1.595,0.319,2.825,0.957,3.691c0.639,0.866,1.536,1.299,2.693,1.299h1.367c1.623,0,2.813-0.369,3.568-1.107
			c0.757-0.738,1.135-1.854,1.135-3.35v-21.355h2.379v21.164c0,2.261-0.561,3.965-1.682,5.113s-2.885,1.723-5.291,1.723H143.744z"/>
		<path fill="#231F20" d="M156.759,201.369l1.326-0.191c-0.656-0.429-0.984-1.021-0.984-1.777c0-0.802,0.262-1.422,0.787-1.859
			c0.523-0.438,1.214-0.656,2.07-0.656c0.729,0,1.345,0.142,1.846,0.424l-0.424,1.258c-0.373-0.228-0.838-0.342-1.395-0.342
			c-0.41,0-0.756,0.116-1.039,0.349c-0.282,0.232-0.424,0.595-0.424,1.087c0,0.319,0.082,0.59,0.246,0.813s0.365,0.39,0.602,0.499
			c0.183-0.046,0.629-0.116,1.34-0.212s1.199-0.144,1.463-0.144v1.367c-0.146,0-0.477,0.025-0.99,0.075
			c-0.516,0.05-1.466,0.166-2.852,0.349l-1.572,0.246V201.369z M158.332,204.021h2.488v17.418h3.691c0.101,0,0.15,0.036,0.15,0.109
			v1.941c0,0.091-0.05,0.137-0.15,0.137h-6.18V204.021z"/>
		<path fill="#231F20" d="M182.49,223.626c-0.838,0-1.611-0.139-2.316-0.417c-0.707-0.278-1.438-0.791-2.195-1.538
			c-0.41,0.574-0.957,1.044-1.641,1.408s-1.499,0.547-2.447,0.547h-9.652c-0.09,0-0.137-0.046-0.137-0.137v-1.941
			c0-0.073,0.047-0.109,0.137-0.109h4.006v-9.215h2.379v9.215h3.021c0.902,0,1.604-0.299,2.105-0.896
			c0.502-0.597,0.752-1.379,0.752-2.345v-5.975h2.379v6.727l-0.027,0.314c0.465,0.802,0.973,1.365,1.525,1.688
			c0.551,0.323,1.255,0.485,2.111,0.485h1.709V210.05h2.379v13.576H182.49z"/>
		<path fill="#231F20" d="M191.759,202.353h2.488v21.273h-2.488V202.353z"/>
	</g>
</g>
<g>
	<g>
		<path fill-rule="evenodd" clip-rule="evenodd" fill="#986F2E" d="M169.442,92.135c0-7.146,0.004-13.454-0.002-20.6
			c-0.001-1.71-0.52-3.208-2.177-3.952c-0.786-0.352-1.714-0.53-2.581-0.536c-7.436-0.054-14.871-0.059-22.307-0.063
			c-11.114-0.007-22.228-0.009-33.342,0.017c-0.643,0.001-1.342,0.143-1.913,0.427c-1.572,0.784-2.295,2.121-2.293,3.891
			c0.012,9.472,0.006,18.107,0.006,27.58c0.012,0,0.021,0,0.033,0c0,5.795,0,11.591,0,17.387c0,3.801,0,7.603-0.002,11.403
			c0,1.239,0.369,2.34,1.254,3.22c0.588,0.586,1.217,1.131,1.84,1.68c2.24,1.976,4.49,3.941,6.732,5.92
			c1.912,1.688,3.811,3.393,5.726,5.078c2.194,1.934,4.405,3.846,6.599,5.777c2.43,2.14,4.831,4.312,7.277,6.435
			c1.953,1.694,3.873,1.699,5.809,0.01c2.674-2.335,5.304-4.721,7.961-7.074c3.401-3.014,6.815-6.011,10.218-9.022
			c2.936-2.601,5.819-5.265,8.812-7.801c1.647-1.397,2.392-3.001,2.38-5.188C169.408,115.194,169.442,103.665,169.442,92.135z"/>
	</g>
	<g>
		<path fill-rule="evenodd" clip-rule="evenodd" fill="#F4F0EA" d="M164.291,94.927c0-6.005,0.004-12.012-0.003-18.018
			c0-1.438-0.437-2.697-1.829-3.322c-0.66-0.296-1.44-0.446-2.168-0.451c-6.249-0.045-12.499-0.049-18.749-0.053
			c-9.34-0.006-18.681-0.007-28.022,0.014c-0.539,0.001-1.129,0.12-1.607,0.358c-1.322,0.658-1.93,1.782-1.927,3.27
			c0.009,7.962,0.004,15.923,0.004,23.884c0.009,0,0.018,0,0.028,0c0,4.871,0,9.742,0,14.613c0,3.195,0,6.39-0.002,9.586
			c-0.001,1.041,0.311,1.964,1.054,2.705c0.493,0.493,1.022,0.949,1.548,1.412c1.883,1.66,3.773,3.313,5.657,4.976
			c1.607,1.418,3.202,2.851,4.813,4.268c1.844,1.624,3.701,3.231,5.546,4.856c2.042,1.798,4.06,3.623,6.114,5.407
			c1.642,1.424,3.256,1.429,4.883,0.008c2.247-1.962,4.456-3.969,6.689-5.945c2.86-2.532,5.729-5.051,8.588-7.583
			c2.469-2.186,4.892-4.426,7.407-6.557c1.385-1.174,2.011-2.521,2-4.359C164.261,114.308,164.291,104.617,164.291,94.927z"/>
	</g>
	<g>
		<g>
			<path fill-rule="evenodd" clip-rule="evenodd" fill="#986F2E" d="M142.33,114.602c-0.859,0.397-1.881,0.738-2.759,1.303
				c-2.831,1.826-4.464,4.988-3.942,8.414c0.236,1.557,0.035,2.992-1.194,4.139c-0.263,0.246-0.47,0.564-0.659,0.875
				c-0.354,0.576-0.246,1.059,0.357,1.353c0.547,0.267,0.818,0.51,0.764,1.242c-0.034,0.46,0.371,1.009,0.332,1.585
				c-0.005,0.066,0.084,0.164,0.153,0.201c0.671,0.368,0.635,0.979,0.569,1.604c-0.016,0.156-0.037,0.313-0.048,0.47
				c-0.076,1.008,0.434,1.638,1.445,1.626c0.921-0.01,1.839-0.18,2.762-0.223c0.621-0.028,1.256-0.012,1.87,0.079
				c0.701,0.104,1.194,0.532,1.438,1.226c0.12,0.344,0.032,0.491-0.338,0.487c-0.907-0.008-1.815-0.002-2.724-0.002
				c-2.233,0.002-4.469-0.001-6.704,0.002c-0.693,0.001-1.393,0.045-2.086,0.009c-0.748-0.041-1.321-0.451-1.698-1.082
				c-0.822-1.376-1.622-2.765-2.417-4.156c-1.045-1.832-2.066-3.68-3.117-5.51c-0.551-0.964-0.589-1.889-0.023-2.87
				c1.804-3.128,3.582-6.27,5.367-9.407c0.537-0.945,1.303-1.424,2.431-1.411c3.37,0.043,6.738,0.036,10.107,0.047
				C142.297,114.602,142.381,114.602,142.33,114.602z"/>
		</g>
		<g>
			<g>
				<path fill="#986F2E" d="M150.376,128.893c-0.064-0.157-0.433-0.258-0.666-0.261c-2.057-0.019-4.116,0.009-6.173-0.021
					c-0.822-0.011-1.603,0.007-2.184-0.905c-0.616-0.967-2.224-0.877-3.064-0.014c-0.823,0.846-0.784,2.283,0.083,3.051
					c0.992,0.873,2.527,0.618,3.233-0.585c0.232-0.397,0.496-0.51,0.92-0.501c1.133,0.021,2.268,0.006,3.401,0.006c0,0,0,0,0-0.002
					c1.238,0,2.477,0.006,3.715-0.004C150.028,129.655,150.501,129.193,150.376,128.893z M139.821,130.375
					c-0.636,0.008-1.235-0.6-1.228-1.244c0.007-0.674,0.528-1.217,1.174-1.223c0.712-0.006,1.255,0.537,1.252,1.252
					C141.016,129.795,140.451,130.368,139.821,130.375z"/>
			</g>
			<g>
				<path fill="#986F2E" d="M141.092,121.526c0.898,0.522,2.115,0.383,2.673-0.486c0.43-0.669,0.936-0.786,1.612-0.721
					c0.207,0.021,0.418,0.002,0.628,0.002c0,0.012,0,0.021,0,0.032c0.471,0,0.942,0.024,1.41-0.014
					c0.133-0.01,0.352-0.196,0.359-0.31c0.021-0.409-0.459-0.823-0.89-0.823c-0.696,0-1.395-0.008-2.092,0.006
					c-0.364,0.007-0.595-0.105-0.798-0.445c-0.325-0.537-0.744-1.017-1.431-1.126c-0.978-0.154-2.022,0.475-2.358,1.426
					C139.836,120.12,140.144,120.975,141.092,121.526z M142.125,118.543c0.769-0.016,1.311,0.468,1.321,1.175
					c0.009,0.713-0.576,1.327-1.271,1.333c-0.683,0.008-1.216-0.553-1.231-1.295C140.93,119.096,141.456,118.558,142.125,118.543z"
					/>
			</g>
			<g>
				<path fill="#986F2E" d="M147.416,123.202c-0.017-0.077-0.098-0.143-0.154-0.208c-0.769-0.875-2.295-0.918-3.104-0.091
					c-0.902,0.925-0.835,2.403,0.146,3.205c0.893,0.729,2.433,0.531,3.046-0.497c0.339-0.565,0.726-0.727,1.311-0.66
					c0.138,0.016,0.279,0.002,0.418,0.002c0-0.001,0-0.004,0-0.005c0.332,0,0.667,0.026,0.993-0.014
					c0.12-0.015,0.33-0.218,0.312-0.28c-0.107-0.366-0.237-0.75-0.74-0.739c-0.296,0.007-0.595-0.014-0.891,0.003
					C148.157,123.952,147.585,123.965,147.416,123.202z M145.816,125.704c-0.729,0.031-1.336-0.518-1.36-1.228
					c-0.023-0.692,0.496-1.242,1.186-1.259c0.63-0.014,1.281,0.613,1.313,1.26C146.98,125.045,146.391,125.678,145.816,125.704z"/>
			</g>
			<g>
				<path fill="#986F2E" d="M147.131,133.336c-0.587,0.049-0.983-0.109-1.309-0.686c-0.54-0.953-2.003-1.187-2.858-0.555
					c-0.732,0.543-1.071,1.476-0.843,2.322c0.195,0.721,0.877,1.33,1.589,1.422c1.108,0.141,1.765-0.188,2.297-1.069
					c0.117-0.192,0.411-0.362,0.641-0.385c0.717-0.075,0.882-0.185,1.092-1.021C147.505,133.353,147.317,133.321,147.131,133.336z
					 M144.167,135.12c-0.717,0.017-1.314-0.551-1.331-1.262c-0.017-0.671,0.621-1.32,1.293-1.316c0.715,0,1.287,0.572,1.298,1.293
					C145.436,134.485,144.829,135.105,144.167,135.12z"/>
			</g>
		</g>
	</g>
	<g>
		<g>
			<path fill-rule="evenodd" clip-rule="evenodd" fill="#986F2E" d="M147.036,96.126c-1.151,0-2.304-0.015-3.456,0.008
				c-0.437,0.007-0.585-0.155-0.581-0.58c0.019-1.623,0.028-3.247,0.013-4.87c-0.004-0.492,0.263-0.511,0.634-0.521
				c0.411-0.011,0.602,0.102,0.593,0.556c-0.022,1.275,0.009,2.55-0.016,3.824c-0.01,0.482,0.157,0.656,0.633,0.636
				c0.646-0.028,1.293-0.028,1.939,0c0.467,0.02,0.612-0.177,0.592-0.62c-0.026-0.593,0.021-1.189-0.014-1.781
				c-0.038-0.681,0.449-0.511,0.815-0.557c0.438-0.056,0.427,0.239,0.426,0.533c-0.003,0.646-0.016,1.292,0.013,1.938
				c0.005,0.152,0.152,0.299,0.233,0.447c0.101-0.149,0.276-0.295,0.283-0.449c0.033-0.644,0.036-1.292,0.009-1.937
				c-0.02-0.491,0.261-0.515,0.633-0.523c0.396-0.008,0.63,0.075,0.609,0.541c-0.025,0.646-0.018,1.293,0.007,1.938
				c0.005,0.141,0.135,0.277,0.209,0.415c0.087-0.141,0.245-0.277,0.251-0.42c0.028-0.663,0.024-1.328,0.012-1.991
				c-0.008-0.34,0.078-0.55,0.471-0.482c0.311,0.057,0.788-0.197,0.767,0.458c-0.029,0.977-0.036,1.954-0.033,2.932
				c0.001,0.358-0.172,0.441-0.487,0.44c-1.518-0.007-3.035-0.003-4.554-0.003C147.036,96.079,147.036,96.103,147.036,96.126z"/>
		</g>
		<g>
			<path fill-rule="evenodd" clip-rule="evenodd" fill="#986F2E" d="M128.005,93.095c0-0.802,0.021-1.605-0.007-2.407
				c-0.017-0.474,0.222-0.539,0.612-0.537c0.379,0.001,0.631,0.037,0.622,0.525c-0.025,1.29,0.018,2.582-0.021,3.872
				c-0.018,0.6,0.297,0.626,0.746,0.634c0.469,0.009,0.739-0.09,0.668-0.638c-0.033-0.254,0.007-0.523,0.047-0.78
				c0.242-1.547,1.545-1.734,2.613-1.38c0.488,0.163,0.745,0.607,0.797,1.088c0.066,0.62,0.111,1.261,0.021,1.871
				c-0.185,1.227-1.47,1.792-2.581,1.127c-0.467-0.282-0.918-0.359-1.429-0.347c-0.524,0.015-1.048-0.01-1.569,0.008
				c-0.383,0.013-0.533-0.137-0.523-0.521C128.019,94.771,128.005,93.934,128.005,93.095z M133.084,94.512
				c-0.032-0.261,0.001-0.553-0.111-0.769c-0.11-0.213-0.355-0.463-0.563-0.485c-0.176-0.02-0.524,0.248-0.549,0.423
				c-0.07,0.523-0.069,1.071,0.01,1.594c0.025,0.174,0.37,0.42,0.564,0.416c0.187-0.005,0.423-0.261,0.531-0.462
				C133.076,95.028,133.05,94.756,133.084,94.512z"/>
		</g>
		<g>
			<path fill-rule="evenodd" clip-rule="evenodd" fill="#986F2E" d="M126.142,95.958c0-0.431,0.003-0.861,0-1.292
				c-0.002-0.261,0.012-0.525-0.023-0.783c-0.043-0.311-0.098-0.671-0.521-0.66c-0.4,0.013-0.498,0.342-0.514,0.67
				c-0.022,0.488-0.015,0.977-0.018,1.466c-0.002,0.753-0.001,0.757-0.747,0.756c-0.977-0.004-1.956,0.025-2.93-0.033
				c-1.138-0.068-1.569-0.578-1.572-1.712c-0.004-1.512,0.7-2.18,2.189-2.104c0.298,0.015,0.449,0.1,0.45,0.424
				c0.002,0.317-0.134,0.439-0.438,0.435c-0.514-0.008-0.929,0.139-1.069,0.709c-0.224,0.918,0.08,1.323,1.022,1.337
				c0.417,0.005,0.837-0.018,1.255,0.006c0.445,0.025,0.639-0.135,0.615-0.601c-0.018-0.363,0.003-0.738,0.08-1.09
				c0.176-0.816,0.828-1.257,1.758-1.241c0.825,0.014,1.49,0.509,1.604,1.295c0.086,0.6,0.121,1.225,0.052,1.823
				c-0.067,0.577-0.687,0.45-1.038,0.677C126.246,96.012,126.195,95.985,126.142,95.958z"/>
		</g>
		<g>
			<path fill-rule="evenodd" clip-rule="evenodd" fill="#986F2E" d="M142.248,93.183c0,0.821-0.013,1.641,0.005,2.46
				c0.008,0.366-0.136,0.492-0.492,0.488c-0.819-0.011-1.641,0.006-2.46,0.012c-0.088,0-0.174-0.008-0.261-0.013
				c-2.125-0.119-2.129-1.854-1.524-3.147c0.252-0.537,1.144-0.882,1.73-0.734c0.111,0.028,0.26,0.25,0.241,0.36
				c-0.031,0.201-0.13,0.501-0.276,0.557c-0.707,0.263-1.016,0.707-0.788,1.429c0.069,0.224,0.373,0.49,0.604,0.525
				c0.527,0.083,1.076,0.042,1.616,0.042c0.386,0,0.377-0.283,0.377-0.555c0-1.255-0.001-2.511,0-3.768
				c0.001-0.624,0.444-0.918,1.017-0.64c0.12,0.058,0.199,0.309,0.203,0.473C142.258,91.508,142.248,92.347,142.248,93.183z"/>
		</g>
		<g>
			<path fill-rule="evenodd" clip-rule="evenodd" fill="#986F2E" d="M140.656,103.686c0,0.39,0.034,0.783-0.015,1.167
				c-0.021,0.172-0.184,0.425-0.328,0.461c-0.327,0.083-0.391-0.183-0.39-0.455c0.003-0.593,0.008-1.186,0-1.777
				c-0.005-0.335,0.15-0.448,0.475-0.471c0.588-0.042,1.085,0.049,1.485,0.549c0.313,0.392,0.718,0.709,1.056,1.085
				c0.215,0.242,0.376,0.25,0.598,0.018c0.396-0.417,0.829-0.797,1.209-1.229c0.318-0.36,0.706-0.441,1.132-0.367
				c0.13,0.025,0.322,0.221,0.33,0.347c0.034,0.626,0.012,1.255,0.017,1.882c0.003,0.395-0.274,0.374-0.543,0.378
				c-0.271,0.005-0.489-0.039-0.481-0.387c0.008-0.41,0.001-0.819,0.001-1.395c-0.273,0.19-0.416,0.266-0.527,0.373
				c-0.381,0.359-0.748,0.731-1.125,1.094c-0.441,0.424-0.879,0.439-1.333,0.021c-0.36-0.329-0.692-0.687-1.042-1.028
				c-0.115-0.114-0.247-0.212-0.369-0.319C140.754,103.652,140.706,103.668,140.656,103.686z"/>
		</g>
		<g>
			<path fill-rule="evenodd" clip-rule="evenodd" fill="#986F2E" d="M126.368,105.116c0.247-0.086,0.491-0.234,0.744-0.247
				c0.694-0.034,1.394,0.003,2.089-0.024c0.193-0.007,0.379-0.143,0.568-0.22c-0.197-0.131-0.387-0.361-0.594-0.379
				c-0.624-0.053-1.254-0.02-1.881-0.024c-0.158-0.001-0.318,0.006-0.469-0.025c-0.584-0.125-0.792-0.69-0.355-1.088
				c0.262-0.238,0.645-0.435,0.99-0.468c0.742-0.069,1.498-0.045,2.246-0.01c0.252,0.013,0.496,0.177,0.746,0.272
				c-0.018,0.09-0.035,0.18-0.053,0.27c-0.98,0-1.963,0-2.945,0c-0.014,0.09-0.029,0.181-0.043,0.271
				c0.229,0.091,0.455,0.248,0.689,0.262c0.607,0.038,1.219,0.01,1.828,0.018c0.172,0.001,0.355,0,0.518,0.049
				c0.621,0.187,0.754,0.69,0.287,1.132c-0.194,0.184-0.456,0.408-0.693,0.415c-1.197,0.043-2.397,0.021-3.596,0.021
				C126.418,105.264,126.393,105.189,126.368,105.116z"/>
		</g>
		<g>
			<path fill-rule="evenodd" clip-rule="evenodd" fill="#986F2E" d="M136.508,105.303c-0.674,0.114-1.331,0.173-1.81-0.495
				c-0.308-0.425-0.633-0.473-1.022-0.068c-0.411,0.425-0.89,0.704-1.534,0.629c-0.34-0.04-0.514-0.129-0.505-0.496
				c0.015-0.575,0.019-1.153-0.001-1.728c-0.016-0.426,0.185-0.538,0.572-0.537c0.373,0.004,0.549,0.129,0.534,0.52
				c-0.019,0.461-0.005,0.925-0.005,1.447c1.262-0.517,1.9-1.891,3.268-1.978c0.035,0.049,0.07,0.096,0.105,0.144
				c-0.172,0.154-0.336,0.317-0.515,0.46c-0.526,0.421-0.541,0.457-0.065,0.903c0.365,0.343,0.767,0.649,1.152,0.973
				C136.625,105.152,136.567,105.228,136.508,105.303z"/>
		</g>
		<g>
			<path fill-rule="evenodd" clip-rule="evenodd" fill="#986F2E" d="M154.28,93.105c0,0.818-0.019,1.637,0.008,2.454
				c0.013,0.457-0.23,0.496-0.588,0.501c-0.367,0.004-0.536-0.099-0.534-0.502c0.005-1.618-0.002-3.236-0.032-4.854
				c-0.008-0.452,0.185-0.558,0.592-0.558c0.408,0.001,0.609,0.106,0.595,0.559c-0.025,0.799-0.008,1.599-0.008,2.399
				C154.301,93.105,154.291,93.105,154.28,93.105z"/>
		</g>
		<g>
			<path fill-rule="evenodd" clip-rule="evenodd" fill="#986F2E" d="M119.857,105.18c0.377-0.349,0.76-0.694,1.129-1.051
				c0.426-0.412,0.838-0.836,1.26-1.251c0.299-0.297,0.712-0.402,0.992-0.13c0.844,0.814,1.623,1.696,2.447,2.573
				c-0.646,0.055-1.301,0.181-1.818-0.458c-0.271-0.337-0.629-0.604-0.912-0.934c-0.318-0.376-0.578-0.414-0.919-0.019
				c-0.339,0.396-0.706,0.778-1.11,1.102c-0.256,0.204-0.604,0.29-0.91,0.43C119.962,105.354,119.911,105.267,119.857,105.18z"/>
		</g>
		<g>
			<path fill-rule="evenodd" clip-rule="evenodd" fill="#986F2E" d="M152.756,105.243c-0.894,0.124-1.576,0.072-2.09-0.609
				c-0.249-0.331-0.594-0.588-0.875-0.896c-0.227-0.247-0.415-0.258-0.65-0.009c-0.395,0.417-0.788,0.84-1.225,1.212
				c-0.243,0.206-0.571,0.311-0.861,0.462c-0.031-0.044-0.063-0.087-0.095-0.132c0.018-0.057,0.019-0.13,0.054-0.167
				c0.74-0.737,1.48-1.476,2.229-2.205c0.36-0.352,0.765-0.343,1.118-0.009C151.143,103.634,151.901,104.401,152.756,105.243z"/>
		</g>
		<g>
			<path fill-rule="evenodd" clip-rule="evenodd" fill="#986F2E" d="M153.37,104.015c0-0.243,0.006-0.486-0.002-0.729
				c-0.012-0.358,0.007-0.643,0.503-0.648c0.456-0.006,0.559,0.192,0.555,0.593c-0.005,0.554,0.032,1.108,0.056,1.662
				c0.023,0.522-0.348,0.45-0.675,0.466c-0.375,0.016-0.487-0.17-0.463-0.514c0.019-0.276,0.003-0.553,0.003-0.831
				C153.354,104.015,153.362,104.015,153.37,104.015z"/>
		</g>
		<g>
			<path fill-rule="evenodd" clip-rule="evenodd" fill="#986F2E" d="M144.135,89.653c-0.531,0-1.063,0-1.484,0
				c0.125-0.312,0.256-0.611,0.36-0.917c0.138-0.403,0.541-0.654,0.941-0.525c0.121,0.04,0.207,0.186,0.285,0.339
				c-0.353,0.012-0.713-0.111-0.808,0.372c-0.123,0.621,0.447,0.448,0.754,0.578C144.167,89.551,144.152,89.603,144.135,89.653z"/>
		</g>
		<g>
			<path fill-rule="evenodd" clip-rule="evenodd" fill="#986F2E" d="M122.535,97.325c-0.032,0.417-0.227,0.684-0.619,0.668
				c-0.397-0.019-0.613-0.338-0.54-0.687c0.04-0.203,0.331-0.463,0.538-0.493C122.229,96.767,122.517,96.958,122.535,97.325z"/>
		</g>
		<g>
			<path fill-rule="evenodd" clip-rule="evenodd" fill="#986F2E" d="M124.14,97.54c-0.135,0.11-0.33,0.395-0.568,0.437
				c-0.38,0.066-0.589-0.235-0.61-0.612c-0.021-0.372,0.243-0.548,0.55-0.563C123.853,96.785,124.103,96.971,124.14,97.54z"/>
		</g>
		<g>
			<path fill-rule="evenodd" clip-rule="evenodd" fill="#F4F0EA" d="M133.084,94.512c-0.034,0.244-0.009,0.516-0.118,0.717
				c-0.108,0.201-0.345,0.457-0.531,0.462c-0.194,0.004-0.539-0.242-0.564-0.416c-0.079-0.522-0.08-1.07-0.01-1.594
				c0.024-0.175,0.373-0.443,0.549-0.423c0.208,0.021,0.453,0.272,0.563,0.485C133.085,93.959,133.052,94.251,133.084,94.512z"/>
		</g>
	</g>
	<g>
		<circle fill-rule="evenodd" clip-rule="evenodd" fill="#986F2E" cx="183.09" cy="87.575" r="2.48"/>
	</g>
	<g>
		<g>
			<rect x="169.435" y="87.598" fill="#986F2E" width="3.526" height="0.313"/>
		</g>
		<g>
			<circle fill-rule="evenodd" clip-rule="evenodd" fill="#986F2E" cx="174.044" cy="87.755" r="1.361"/>
		</g>
	</g>
	<g>
		<path fill="#986F2E" d="M172.513,94.77c-0.646,0-1.616-0.006-3.08-0.018l0.003-0.315c1.451,0.013,3.583,0.022,4.138,0.01v-0.003
			l0.15-0.006c1.975-0.067,3.445-1.439,3.461-1.452l4.334-3.852l0.209,0.235l-4.331,3.848c-0.06,0.056-1.565,1.465-3.661,1.536
			v-0.008C173.608,94.761,173.301,94.77,172.513,94.77z"/>
	</g>
	<g>
		<circle fill-rule="evenodd" clip-rule="evenodd" fill="#986F2E" cx="183.09" cy="115.349" r="2.48"/>
	</g>
	<g>
		<g>
			<rect x="169.435" y="115.011" fill="#986F2E" width="3.526" height="0.315"/>
		</g>
		<g>
			<circle fill-rule="evenodd" clip-rule="evenodd" fill="#986F2E" cx="174.044" cy="115.167" r="1.361"/>
		</g>
	</g>
	<g>
		<path fill="#986F2E" d="M181.519,113.789l-4.332-3.848c-0.018-0.016-1.488-1.389-3.463-1.456l-0.15-0.01
			c-0.555-0.013-2.687-0.001-4.138,0.01l-0.003-0.314c3.249-0.026,4.069-0.022,4.303,0.008v-0.008
			c2.096,0.071,3.602,1.479,3.665,1.54l4.327,3.844L181.519,113.789z"/>
	</g>
	<g>
		<circle fill-rule="evenodd" clip-rule="evenodd" fill="#986F2E" cx="150.39" cy="54.729" r="2.48"/>
	</g>
	<g>
		<g>
			<rect x="150.054" y="64.858" fill="#986F2E" width="0.313" height="3.527"/>
		</g>
		<g>
			<circle fill-rule="evenodd" clip-rule="evenodd" fill="#986F2E" cx="150.211" cy="63.775" r="1.361"/>
		</g>
	</g>
	<g>
		<path fill="#986F2E" d="M143.213,68.386c-0.026-3.25-0.022-4.069,0.008-4.302l-0.008,0c0.071-2.096,1.48-3.603,1.54-3.665
			l3.845-4.327l0.232,0.208l-3.846,4.331c-0.017,0.019-1.39,1.489-1.456,3.463l-0.011,0.152c-0.013,0.553-0.002,2.686,0.011,4.137
			L143.213,68.386z"/>
	</g>
	<g>
		<g>
			<circle fill-rule="evenodd" clip-rule="evenodd" fill="#986F2E" cx="192.537" cy="91.522" r="2.48"/>
		</g>
		<g>
			<path fill="#986F2E" d="M177.682,100.479c-0.753,0-1.765-0.001-3.127-0.003c-2.614-0.005-5.227-0.013-5.227-0.013l0.001-0.315
				c2.64,0.009,9.271,0.025,10.32,0.006v-0.001l0.152-0.005c1.978-0.067,3.445-1.439,3.459-1.454l0.009-0.007l7.159-5.886
				l0.199,0.243l-7.154,5.881c-0.109,0.103-1.601,1.466-3.661,1.537l-0.001-0.009C179.644,100.473,179.167,100.479,177.682,100.479z
				"/>
		</g>
	</g>
	<g>
		<circle fill-rule="evenodd" clip-rule="evenodd" fill="#986F2E" cx="122.556" cy="54.447" r="2.48"/>
	</g>
	<g>
		<g>
			<rect x="122.578" y="64.575" fill="#986F2E" width="0.315" height="3.528"/>
		</g>
		<g>
			<circle fill-rule="evenodd" clip-rule="evenodd" fill="#986F2E" cx="122.736" cy="63.493" r="1.361"/>
		</g>
	</g>
	<g>
		<path fill="#986F2E" d="M129.732,68.104l-0.313-0.002c0.011-1.451,0.021-3.583,0.01-4.137h-0.006l-0.004-0.152
			c-0.068-1.978-1.439-3.444-1.454-3.459l-3.851-4.335l0.236-0.208l3.846,4.331c0.057,0.059,1.465,1.566,1.535,3.662h-0.007
			C129.755,64.035,129.759,64.854,129.732,68.104z"/>
	</g>
	<g>
		<g>
			<circle fill-rule="evenodd" clip-rule="evenodd" fill="#986F2E" cx="126.501" cy="44.999" r="2.48"/>
		</g>
		<g>
			<path fill="#986F2E" d="M135.444,68.208l-0.315-0.001c0.01-2.638,0.026-9.27,0.008-10.319h-0.002l-0.006-0.152
				c-0.066-1.978-1.439-3.445-1.452-3.459l-0.007-0.009l-5.887-7.159l0.244-0.2l5.881,7.156c0.102,0.109,1.467,1.6,1.536,3.661
				h-0.009c0.028,0.254,0.028,1.208,0.022,5.257C135.453,65.597,135.444,68.208,135.444,68.208z"/>
		</g>
	</g>
	<g>
		<circle fill-rule="evenodd" clip-rule="evenodd" fill="#986F2E" cx="91.217" cy="90.299" r="2.479"/>
	</g>
	<g>
		<g>
			<rect x="101.345" y="90.323" fill="#986F2E" width="3.528" height="0.313"/>
		</g>
		<g>
			<circle fill-rule="evenodd" clip-rule="evenodd" fill="#986F2E" cx="100.263" cy="90.479" r="1.361"/>
		</g>
	</g>
	<g>
		<path fill="#986F2E" d="M101.794,97.495c-0.787,0-1.094-0.009-1.221-0.025v0.008c-2.097-0.072-3.604-1.48-3.666-1.54l-4.328-3.844
			l0.209-0.235l4.331,3.848c0.019,0.017,1.489,1.389,3.464,1.456l0.151,0.01c0.554,0.013,2.687,0.001,4.138-0.01l0.002,0.315
			C103.412,97.488,102.441,97.495,101.794,97.495z"/>
	</g>
	<g>
		<circle fill-rule="evenodd" clip-rule="evenodd" fill="#986F2E" cx="89.855" cy="117.968" r="2.48"/>
	</g>
	<g>
		<g>
			<rect x="101.345" y="117.735" fill="#986F2E" width="3.528" height="0.313"/>
		</g>
		<g>
			<circle fill-rule="evenodd" clip-rule="evenodd" fill="#986F2E" cx="100.263" cy="117.892" r="1.361"/>
		</g>
	</g>
	<g>
		<path fill="#986F2E" d="M91.427,116.408l-0.209-0.234l4.33-3.848c0.061-0.057,1.565-1.465,3.662-1.537v0.005
			c0.189-0.024,0.773-0.024,2.848-0.018c1.41,0.005,2.816,0.013,2.816,0.013l-0.002,0.315c-1.959-0.013-4.842-0.023-5.5-0.009v0.004
			l-0.152,0.005c-1.973,0.067-3.443,1.439-3.459,1.453L91.427,116.408z"/>
	</g>
	<g>
		<g>
			<circle fill-rule="evenodd" clip-rule="evenodd" fill="#986F2E" cx="80.513" cy="114.056" r="2.48"/>
		</g>
		<g>
			<path fill="#986F2E" d="M82.622,112.776l-0.2-0.243l7.156-5.882c0.108-0.102,1.599-1.466,3.66-1.537v0.006
				c0.152-0.018,0.564-0.019,1.822-0.021c1.08,0,2.52,0,3.959,0.002c2.877,0.005,5.75,0.013,5.75,0.013v0.315
				c-3.618-0.01-10.313-0.025-11.368-0.006v0.001l-0.153,0.005c-1.977,0.067-3.443,1.439-3.457,1.454l-0.01,0.007L82.622,112.776z"
				/>
		</g>
	</g>
</g>
</svg>
