<?xml version="1.0" encoding="utf-8"?>
<!-- Generator: Adobe Illustrator 16.0.0, SVG Export Plug-In . SVG Version: 6.00 Build 0)  -->
<!DOCTYPE svg PUBLIC "-//W3C//DTD SVG 1.1//EN" "http://www.w3.org/Graphics/SVG/1.1/DTD/svg11.dtd">
<svg version="1.1" id="Layer_1" xmlns="http://www.w3.org/2000/svg" xmlns:xlink="http://www.w3.org/1999/xlink" x="0px" y="0px"
	 width="273.05px" height="273.05px" viewBox="0 0 273.05 273.05" enable-background="new 0 0 273.05 273.05" xml:space="preserve">
<g>
	<g>
		<path fill="#F4F0EA" d="M136.526,174.658c-41.187,0-74.864-32.098-77.419-72.643H0v161.527c0,5.248,4.257,9.508,9.506,9.508
			h254.035c5.252,0,9.51-4.26,9.51-9.508V102.015h-59.108C211.391,142.561,177.716,174.658,136.526,174.658z"/>
		<path fill="#986F2E" d="M263.541-0.001H9.506C4.257-0.001,0,4.26,0,9.507v92.508h59.107c-0.104-1.638-0.174-3.286-0.174-4.948
			c0-42.854,34.738-77.591,77.593-77.591c42.851,0,77.589,34.737,77.589,77.591c0,1.662-0.07,3.311-0.174,4.948h59.109V9.507
			C273.05,4.26,268.792-0.001,263.541-0.001z"/>
		<path fill="#F4F0EA" d="M136.526,30.762c-36.62,0-66.31,29.686-66.31,66.305c0,1.666,0.085,3.311,0.202,4.948
			c2.54,34.303,31.155,61.357,66.107,61.357c34.956,0,63.571-27.055,66.104-61.357c0.121-1.638,0.203-3.282,0.203-4.948
			C202.833,60.448,173.148,30.762,136.526,30.762z"/>
	</g>
	<g>
		<g>
			<path fill="#231F20" d="M114.123,223.626c-0.032,2.576-0.7,4.523-2.004,5.845c-1.304,1.321-3.339,1.979-6.107,1.979h-2.337
				c-2.015,0-3.61-0.742-4.787-2.227c-1.177-1.484-1.765-3.525-1.765-6.123c0-1.336,0.116-2.689,0.35-4.063
				c0.234-1.373,0.562-2.58,0.986-3.619h2.704c-0.743,1.877-1.113,4.438-1.113,7.683c0,1.854,0.371,3.286,1.113,4.293
				c0.742,1.008,1.786,1.513,3.133,1.513h1.59c1.887,0,3.271-0.431,4.151-1.289c0.88-0.859,1.32-2.158,1.32-3.896v-24.84h2.767
				v22.201h3.578c0.117,0,0.175,0.041,0.175,0.127v2.258c0,0.105-0.059,0.158-0.175,0.158H114.123L114.123,223.626z"/>
			<path fill="#231F20" d="M138.613,223.626c-0.975,0-1.874-0.162-2.695-0.485c-0.822-0.322-1.673-0.92-2.553-1.789
				c-0.477,0.668-1.113,1.215-1.908,1.64c-0.795,0.424-1.744,0.635-2.847,0.635h-11.228c-0.105,0-0.159-0.053-0.159-0.158v-2.258
				c0-0.086,0.053-0.127,0.159-0.127h4.66v-10.719h2.767v10.719h3.515c1.05,0,1.866-0.349,2.449-1.043
				c0.583-0.693,0.875-1.604,0.875-2.728v-6.948h2.767v7.823l-0.032,0.365c0.541,0.934,1.131,1.588,1.773,1.965
				c0.642,0.376,1.46,0.563,2.457,0.563h1.988v-13.248h2.768v15.793H138.613z"/>
			<path fill="#231F20" d="M149.396,198.88h2.895v24.746h-2.895V198.88z"/>
			<path fill="#231F20" d="M163.375,223.626v0.778c0,2.194-0.498,3.917-1.494,5.169c-0.996,1.25-2.434,1.877-4.311,1.877
				c-1.039,0-2.146-0.309-3.324-0.924l0.844-2.178c0.529,0.232,0.966,0.384,1.305,0.453c0.339,0.068,0.71,0.104,1.113,0.104
				c0.976,0,1.738-0.398,2.289-1.193c0.552-0.795,0.828-1.844,0.828-3.147v-16.729h2.75v13.248h4.023
				c0.117,0,0.176,0.041,0.176,0.127v2.258c0,0.105-0.059,0.158-0.176,0.158H163.375L163.375,223.626z"/>
			<path fill="#231F20" d="M167.08,223.626c-0.104,0-0.158-0.053-0.158-0.16v-2.258c0-0.084,0.054-0.127,0.158-0.127h6.25v-13.248
				h2.896v15.793H167.08z M171.771,204.732c-0.508,0-0.939-0.152-1.295-0.461c-0.355-0.307-0.533-0.805-0.533-1.494
				s0.178-1.188,0.533-1.496c0.354-0.307,0.787-0.461,1.295-0.461c0.553,0,0.992,0.168,1.32,0.502s0.492,0.818,0.492,1.455
				c0,0.625-0.16,1.107-0.484,1.447C172.776,204.563,172.333,204.732,171.771,204.732z M177.402,204.732
				c-0.563,0-1.008-0.169-1.336-0.508c-0.329-0.34-0.492-0.822-0.492-1.447c0-0.626,0.16-1.107,0.484-1.447
				c0.322-0.34,0.771-0.51,1.344-0.51c0.582,0,1.033,0.178,1.352,0.533c0.32,0.355,0.478,0.83,0.478,1.424s-0.157,1.068-0.478,1.424
				C178.436,204.556,177.984,204.732,177.402,204.732z"/>
		</g>
	</g>
	<g>
		<path fill="#231F20" d="M159.119,88.897c0,0,2.488,6.895,12.283,13.382c0,0.136-4.828,5.794-7.865,16.69l-8.692-13.935
			c0,0,2.211-6.62-1.651-16.138c0.141-0.277,0.965,7.447-3.177,16.828c0.139-0.137,15.453,23.04,15.453,23.04
			s4.274-17.245,16.551-31.18C181.887,97.45,167.817,96.759,159.119,88.897z"/>
		<path fill="#231F20" d="M144.908,97.172c0,0,10.764-8.692,1.795-20.143c0,0.137-2.799-5.471-11.443-3.311
			c0,0-2.697,0.967-0.765-2.342c0.14,0.067,1.312-2.145,2.69-2.967c-0.064-0.143,0.275,0.547,1.242-2.006
			c0.207,0.144,3.105-8.137,20.279-3.514c0,0.207,5.588,1.172,11.729,10.274c0.14,0,3.446,7.587,15.933,14.073
			c0.068,0.205-10.486-0.07-18.07-8.623c0,0.14-8.275-11.863-8.555-4.411c0,0.067,0.758,3.581,0.758,3.581s-4.83-6.552-10.14-6.965
			c0.07,0.07-2.624-1.239,0,1.795C150.433,72.683,159.533,89.792,144.908,97.172z"/>
		<path fill="#231F20" d="M164.852,82.067c0,0-1.313-2.141,1.167-1.104c0.066,0.068,3.036,0.83,6.969,6.001
			c0.141,0.137,2.896,4.348,7.862,4.482c0.071,0,2.621,0.277,0,1.449c0,0-8.97,1.518-11.795-4.346
			C169.193,88.62,165.955,81.514,164.852,82.067z"/>
		<g>
			<path fill="#231F20" d="M185.449,72.301c0,3.169-2.486,5.656-5.724,5.656c-3.202,0-5.759-2.487-5.759-5.656
				c0-3.101,2.557-5.588,5.759-5.588C182.962,66.713,185.449,69.2,185.449,72.301z M175.398,72.301c0,2.487,1.84,4.463,4.361,4.463
				c2.453,0,4.26-1.976,4.26-4.429c0-2.487-1.807-4.498-4.294-4.498S175.398,69.848,175.398,72.301z M178.839,75.231h-1.295v-5.588
				c0.513-0.102,1.228-0.17,2.146-0.17c1.057,0,1.533,0.17,1.941,0.409c0.308,0.238,0.546,0.681,0.546,1.227
				c0,0.613-0.478,1.09-1.158,1.294v0.068c0.545,0.205,0.853,0.613,1.022,1.363c0.17,0.852,0.271,1.192,0.408,1.397h-1.396
				c-0.17-0.205-0.273-0.715-0.443-1.363c-0.102-0.613-0.443-0.886-1.158-0.886h-0.613V75.231z M178.875,72.063h0.612
				c0.716,0,1.294-0.239,1.294-0.818c0-0.511-0.373-0.852-1.191-0.852c-0.342,0-0.58,0.034-0.715,0.068V72.063L178.875,72.063z"/>
		</g>
		<g>
			<path fill="#FFFFFF" stroke="#231F20" stroke-width="0.5" stroke-miterlimit="10" d="M117.699,83.241l-3.172-0.209l-3.742,13.1
				c0.358,0.633,0.564,1.021,0.564,1.041c8.006-9.244,19.039-8.285,19.039-8.285s0-0.371,0-0.991l-9.35-6.715L117.699,83.241z"/>
			<path fill="#272726" stroke="#231F20" stroke-width="0.5" stroke-miterlimit="10" d="M102.805,82.269l-0.006,0.005
				c0,0,6.071,10.477,7.986,13.857l3.742-13.1L102.805,82.269z"/>
			<path fill="#72A744" stroke="#231F20" stroke-width="0.5" stroke-miterlimit="10" d="M121.039,81.181l9.35,6.715
				c0-2.812,0-10.757,0-12.474L121.039,81.181z"/>
			<path fill="#EB2227" stroke="#231F20" stroke-width="0.5" stroke-miterlimit="10" d="M116.783,75.145
				c-1.125,0.203-2.169,0.447-3.148,0.726c-7.615,2.18-10.803,6.355-10.83,6.398l11.723,0.763l3.172,0.209l3.34-2.06l9.35-5.759
				c0-0.172,0-0.289,0-0.32C124.971,74.315,120.471,74.487,116.783,75.145z"/>
		</g>
		<g>
			<path fill="#231F20" d="M101.196,116.202h-3.634c-0.536,1.666-1.161,2.862-1.875,3.589c-0.842,0.848-1.951,1.272-3.328,1.272
				c-1.607,0-2.927-0.636-3.96-1.908c-1.033-1.272-1.549-2.862-1.549-4.771l0.191-0.817h0.344c0.178,0.363,0.383,1.121,0.612,2.271
				c0.178,0.969,0.421,1.65,0.727,2.044c0.434,0.575,1.135,0.863,2.104,0.863c0.969,0,1.798-0.462,2.486-1.385
				c0.689-0.924,1.033-1.977,1.033-3.158V97.848c0-0.091-0.064-0.257-0.191-0.5c-0.128-0.242-0.191-0.393-0.191-0.454
				c0-0.121,0.542-0.742,1.626-1.863c1.084-1.12,1.703-1.696,1.855-1.726l0.306,0.227v18.399h3.443L101.196,116.202L101.196,116.202
				z"/>
			<path fill="#231F20" d="M105.175,116.202h-4.782v-4.271h4.782V116.202z"/>
			<path fill="#231F20" d="M120.553,116.202h-15.494v-7.859l-0.382-0.909c0.128-0.242,0.688-0.886,1.683-1.931
				c0.995-1.045,1.594-1.598,1.798-1.659l0.268,0.273v7.905h2.716v-3.68l-0.382-0.954c0.535-0.605,1.071-1.211,1.606-1.817
				c1.096-1.181,1.722-1.756,1.875-1.727l0.268,0.273v7.905h2.678v-3.68c0-0.091-0.064-0.25-0.191-0.477
				c-0.128-0.228-0.191-0.386-0.191-0.477c0-0.091,0.536-0.696,1.607-1.817c1.071-1.12,1.683-1.696,1.836-1.727l0.306,0.091
				L120.553,116.202L120.553,116.202z"/>
			<path fill="#231F20" d="M126.712,116.202h-3.443c0,0.787,0.013-1.136,0.039-5.77c0.051-3.665,0.051-6.572,0-8.723
				c-0.052-3.028-0.167-4.634-0.345-4.815c0.051-0.211,0.593-0.855,1.626-1.931c1.033-1.075,1.613-1.628,1.741-1.658l0.383,0.409
				L126.712,116.202L126.712,116.202z"/>
			<path fill="#231F20" d="M141.25,116.202h-3.252l-0.115,0.182c-0.076,1.454-0.764,2.665-2.065,3.635
				c-1.148,0.878-2.372,1.317-3.673,1.317c-1.377,0-2.309-0.394-2.792-1.181l0.076-0.273c1.632-0.303,2.818-0.772,3.558-1.408
				c0.995-0.879,1.492-2.211,1.492-3.998c0-1.241-0.351-2.445-1.052-3.611c-0.702-1.166-1.065-1.779-1.09-1.84
				c0.383-1.12,1.007-2.574,1.875-4.361l0.421-0.272c0.739,0.182,1.479,1.303,2.219,3.362c0.561,1.484,0.943,2.878,1.148,4.18h3.252
				v4.268H141.25z"/>
			<path fill="#231F20" d="M145.878,116.157l-5.776,0.045v-4.271h2.41v-3.543c0-0.091-0.063-0.25-0.191-0.477
				c-0.127-0.227-0.19-0.401-0.19-0.522c0-0.151,0.541-0.772,1.627-1.863c1.082-1.09,1.688-1.636,1.816-1.636
				c0.127,0,0.229,0.076,0.307,0.228v12.039H145.878z M143.66,99.893c0,0.545-0.154,1-0.459,1.363
				c-0.307,0.363-0.688,0.545-1.147,0.545c-1.071,0-1.607-0.651-1.607-1.954c0-0.515,0.166-0.969,0.498-1.363
				c0.331-0.393,0.701-0.59,1.109-0.59c0.434,0,0.81,0.205,1.129,0.613C143.5,98.916,143.66,99.378,143.66,99.893z M147.371,99.893
				c0,1.272-0.535,1.908-1.606,1.908c-0.459,0-0.843-0.189-1.147-0.568c-0.306-0.378-0.459-0.825-0.459-1.34
				s0.159-0.977,0.479-1.386c0.318-0.409,0.695-0.613,1.129-0.613s0.811,0.205,1.129,0.613
				C147.21,98.916,147.371,99.378,147.371,99.893z"/>
		</g>
	</g>
</g>
</svg>
